<svg id="Layer_3" data-name="Layer 3" xmlns="http://www.w3.org/2000/svg" xmlns:xlink="http://www.w3.org/1999/xlink" viewBox="0 0 191.14 259.39"><defs><style>.cls-1,.cls-3{fill:none;}.cls-2{clip-path:url(#clip-path);}.cls-3{stroke:#231f20;stroke-miterlimit:10;}.cls-4{clip-path:url(#clip-path-2);}</style><clipPath id="clip-path"><rect class="cls-1" width="191.14" height="259.39"/></clipPath><clipPath id="clip-path-2"><rect class="cls-1" x="-983.57" y="-231.17" width="191.14" height="259.39"/></clipPath></defs><title>runner-skeleton-00</title><g class="cls-2"><polyline class="cls-3" points="19.62 213.07 16.3 209.76 19.62 194.66 74.51 174.76 91.08 128.72 96.56 127.96 104.35 126.87 150.39 145.29 139.34 200.55 158.13 204.97 164.02 201.65"/><polyline class="cls-3" points="93.3 103.67 93.3 95.56 78.56 59.46 104.35 59.46 107.55 61.21 112.45 63.88 123.87 101.09 144.87 80.27 147.81 75.3"/><polyline class="cls-3" points="96.56 127.96 103.92 103.67 100.29 78.62 107.55 61.21 116.96 55.67 123 35.16"/></g><g class="cls-4"><image width="1608" height="714" transform="translate(-996.11 -490.46) scale(0.73)" xlink:href="../Screen%20Shot%202020-01-27%20at%208.56.00%20PM.png"/></g></svg>