<svg id="Layer_3" data-name="Layer 3" xmlns="http://www.w3.org/2000/svg" xmlns:xlink="http://www.w3.org/1999/xlink" viewBox="0 0 191.14 259.39"><defs><style>.cls-1,.cls-3{fill:none;}.cls-2{clip-path:url(#clip-path);}.cls-3{stroke:#231f20;stroke-miterlimit:10;}.cls-4{clip-path:url(#clip-path-2);}</style><clipPath id="clip-path"><rect class="cls-1" width="191.14" height="259.39"/></clipPath><clipPath id="clip-path-2"><rect class="cls-1" x="-983.57" y="-231.17" width="191.14" height="259.39"/></clipPath></defs><title>runner-skeleton-01</title><g class="cls-2"><polyline class="cls-3" points="15.43 182.14 16.91 174.13 29.65 165.84 80.93 176.5 89.82 122.86 92.49 122.86 96.05 122.86 134.87 155.76 139.91 207.92 154.73 211.18 158.88 209.7"/><polyline class="cls-3" points="134.87 88.18 129.24 90.85 105.83 97.96 105.83 63.88 103.3 62.75 100.49 61.5 75.3 71.58 87.15 94.7 87.15 100.63"/><polyline class="cls-3" points="92.49 122.86 92.19 83.73 103.3 62.75 114.13 54.98 116.79 31.57"/></g><g class="cls-4"><image width="1608" height="714" transform="translate(-996.11 -490.46) scale(0.73)" xlink:href="../Screen%20Shot%202020-01-27%20at%208.56.00%20PM.png"/></g></svg>