<svg id="Layer_3" data-name="Layer 3" xmlns="http://www.w3.org/2000/svg" xmlns:xlink="http://www.w3.org/1999/xlink" viewBox="0 0 191.14 259.39"><defs><style>.cls-1,.cls-3{fill:none;}.cls-2{clip-path:url(#clip-path);}.cls-3{stroke:#231f20;stroke-miterlimit:10;}.cls-4{clip-path:url(#clip-path-2);}</style><clipPath id="clip-path"><rect class="cls-1" width="191.14" height="259.39"/></clipPath><clipPath id="clip-path-2"><rect class="cls-1" x="-983.57" y="-231.17" width="191.14" height="259.39"/></clipPath></defs><title>runner-skeleton-05</title><g class="cls-2"><polyline class="cls-3" points="147.08 201.25 138 201.99 125.35 193.22 147.08 143.07 94.4 116.88 96.34 121.35 68.96 167.62 26.25 200.06 26.25 215.39 30.12 219.11"/><polyline class="cls-3" points="140.68 67.63 138.6 76.86 120 96.2 115.83 62.27 108.52 59.28 100.95 56.17 65.69 56.92 63.75 89.65 66.73 99.47"/><path class="cls-3" d="M100.36,82.51l8.16-23.23Z"/><line class="cls-3" x1="95.39" y1="119.16" x2="100.36" y2="82.51"/><polyline class="cls-3" points="108.52 59.28 113.6 51.86 120 29.84"/></g><g class="cls-4"><image width="1608" height="714" transform="translate(-996.11 -490.46) scale(0.73)" xlink:href="../Screen%20Shot%202020-01-27%20at%208.56.00%20PM.png"/></g></svg>