<svg id="Layer_3" data-name="Layer 3" xmlns="http://www.w3.org/2000/svg" xmlns:xlink="http://www.w3.org/1999/xlink" viewBox="0 0 191.14 259.39"><defs><style>.cls-1,.cls-3{fill:none;}.cls-2{clip-path:url(#clip-path);}.cls-3{stroke:#231f20;stroke-miterlimit:10;}.cls-4{clip-path:url(#clip-path-2);}</style><clipPath id="clip-path"><rect class="cls-1" width="191.14" height="259.39"/></clipPath><clipPath id="clip-path-2"><rect class="cls-1" x="-983.57" y="-231.17" width="191.14" height="259.39"/></clipPath></defs><title>runner-skeleton-02</title><g class="cls-2"><polyline class="cls-3" points="138.79 220.68 133.07 224.05 116.23 215.97 122.97 161.43 92.33 116.65 88.48 117.7 84.92 118.67 94.35 173.21 43.51 152 33.75 159.07 31.39 164.79"/><polyline class="cls-3" points="105.33 109.59 100.64 106.82 78.67 82.94 99.14 59.48 100.42 59.48 101.7 59.48 87.84 95.3 114.71 112.15 122.17 112.15"/><polyline class="cls-3" points="88.48 117.7 92.36 77.89 100.42 59.48 112.75 50.7 115.3 30.1"/></g><g class="cls-4"><image width="1608" height="714" transform="translate(-996.11 -490.46) scale(0.73)" xlink:href="../Screen%20Shot%202020-01-27%20at%208.56.00%20PM.png"/></g></svg>